# xmcd
#
# Track frame offsets:
#	150
#	17349
#	34686
#	49454
#	66526
#	80422
#	94053
#	113048
#	130614
#	150739
#	168863
#	182078
#	195450
#	208856
#	225159
#	244410
#	258375
#	276288
#	291048
#	307683
#	324262
#
# Disc length: 4535 seconds
#
# Revision: 0
# Processed by: cddbd v1.5.2PL0 Copyright (c) Steve Scherf et al.
# Submitted via: audiograbber 1.83.01
#
DISCID=1811b515
DTITLE=Various Artist - ERG NCT 178
DYEAR=2009
DGENRE=Country
TTITLE0=Keith Urban - Kiss A Girl
TTITLE1=Miley Cyrus - The Climb (Country Mix)
TTITLE2=Aaron Pritchett - Hell Bent For Buffalo
TTITLE3=Pat Green - Country Star
TTITLE4=Dierks Bentley - Sideways
TTITLE5=Sugarland - It Happens
TTITLE6=Kid Rock - Blue Jeans And A Rosary
TTITLE7=Billy Currington - People Are Crazy
TTITLE8=Alex J Robinson - The Other Woman
TTITLE9=Blake Shelton - I'll Just Hold On
TTITLE10=Lisa Brokop - Shackin' Up
TTITLE11=Joey and Rory - Play The Song
TTITLE12=Tracy Lawrence - Up To Him
TTITLE13=Toby Keith - Lost You Anyway
TTITLE14=Jason Michael Carroll - Where I'm From
TTITLE15=Craig Moritz - Blame You
TTITLE16=The Rankin Family - Never Alone
TTITLE17=Jo Dee Messina - Shine
TTITLE18=The Higgins - Second Hand Car
TTITLE19=Eli Young Band - Always The Love Songs
TTITLE20=Chris Young - Getting You Home (The Black Dress Song)
EXTD=
EXTT0=
EXTT1=
EXTT2=
EXTT3=
EXTT4=
EXTT5=
EXTT6=
EXTT7=
EXTT8=
EXTT9=
EXTT10=
EXTT11=
EXTT12=
EXTT13=
EXTT14=
EXTT15=
EXTT16=
EXTT17=
EXTT18=
EXTT19=
EXTT20=
PLAYORDER=
